<?xml version="1.0" encoding="UTF-8" standalone="no"?>
<svg
   xmlns:dc="http://purl.org/dc/elements/1.1/"
   xmlns:cc="http://creativecommons.org/ns#"
   xmlns:rdf="http://www.w3.org/1999/02/22-rdf-syntax-ns#"
   xmlns:svg="http://www.w3.org/2000/svg"
   xmlns="http://www.w3.org/2000/svg"
   viewBox="0 0 547.09332 576.03998"
   height="576.03998"
   width="547.09332"
   xml:space="preserve"
   id="svg2"
   version="1.1"><metadata
     id="metadata8"><rdf:RDF><cc:Work
         rdf:about=""><dc:format>image/svg+xml</dc:format><dc:type
           rdf:resource="http://purl.org/dc/dcmitype/StillImage" /></cc:Work></rdf:RDF></metadata><defs
     id="defs6" /><g
     transform="matrix(1.3333333,0,0,-1.3333333,0,576.04)"
     id="g10"><g
       transform="scale(0.1)"
       id="g12"><path
         id="path14"
         style="fill:#1ea6e6;fill-opacity:1;fill-rule:nonzero;stroke:none"
         d="m 1065.49,2549.23 c -21.05,17.55 -47.98,29.23 -76.052,29.23 -21.055,0 -49.129,-12.28 -49.129,-36.84 0,-25.74 30.992,-35.67 50.89,-42.11 l 29.261,-8.77 c 61.41,-18.14 108.81,-49.14 108.81,-120.51 0,-43.88 -10.54,-88.91 -45.63,-118.76 -34.52,-29.23 -80.74,-41.52 -125.206,-41.52 -55.551,0 -109.961,18.72 -155.004,50.3 l 49.136,92.44 c 28.661,-25.18 62.59,-45.63 101.782,-45.63 26.902,0 55.572,13.43 55.572,44.44 0,32.18 -45.049,43.31 -69.611,50.31 -71.946,20.49 -119.329,39.2 -119.329,124.6 0,89.5 63.766,148.01 152.086,148.01 44.444,0 98.854,-14.04 138.044,-36.26 l -45.62,-88.93" /><path
         id="path16"
         style="fill:#1ea6e6;fill-opacity:1;fill-rule:nonzero;stroke:none"
         d="m 1386.09,2424.06 c -15.8,11.68 -34.52,21.05 -54.98,21.05 -40.94,0 -73.14,-31.59 -73.14,-73.12 0,-43.3 31.02,-73.71 74.9,-73.71 18.7,0 39.18,7.6 53.22,20.47 v -90.08 c -23.39,-11.71 -49.14,-16.97 -74.87,-16.97 -88.92,0 -163.21,66.1 -163.21,156.76 0,96.53 73.7,163.22 167.9,163.22 24.54,0 49.12,-5.85 70.18,-17.55 v -90.07" /><path
         id="path18"
         style="fill:#1ea6e6;fill-opacity:1;fill-rule:nonzero;stroke:none"
         d="m 1546.98,2707.18 v -223.47 h 1.17 c 24.56,32.76 54.39,47.97 95.93,47.97 76.04,0 112.91,-50.3 112.91,-126.35 v -183.7 h -106.47 v 153.86 c 0,35.1 -5.27,71.37 -47.98,71.37 -42.12,0 -55.56,-36.27 -55.56,-71.37 v -153.86 h -106.47 v 485.55 h 106.47" /><path
         id="path20"
         style="fill:#1ea6e6;fill-opacity:1;fill-rule:nonzero;stroke:none"
         d="m 1905.59,2371.39 c 0,-38.04 25.16,-67.26 68.45,-67.26 43.28,0 68.44,29.22 68.44,67.26 0,36.85 -25.16,67.87 -68.44,67.87 -43.29,0 -68.45,-31.02 -68.45,-67.87 z m 249.2,0 c 0,-101.78 -84.22,-159.69 -180.75,-159.69 -95.95,0 -180.77,57.33 -180.77,159.69 0,102.38 84.24,160.29 180.77,160.29 96.53,0 180.75,-57.91 180.75,-160.29" /><path
         id="path22"
         style="fill:#1ea6e6;fill-opacity:1;fill-rule:nonzero;stroke:none"
         d="m 2281.18,2371.39 c 0,-38.04 25.15,-67.26 68.45,-67.26 43.28,0 68.43,29.22 68.43,67.26 0,36.85 -25.15,67.87 -68.43,67.87 -43.3,0 -68.45,-31.02 -68.45,-67.87 z m 249.21,0 c 0,-101.78 -84.23,-159.69 -180.76,-159.69 -95.95,0 -180.78,57.33 -180.78,159.69 0,102.38 84.26,160.29 180.78,160.29 96.53,0 180.76,-57.91 180.76,-160.29" /><path
         id="path24"
         style="fill:#1ea6e6;fill-opacity:1;fill-rule:nonzero;stroke:none"
         d="m 2673.15,2221.63 h -106.47 v 485.55 h 106.47 v -485.55" /><path
         id="path26"
         style="fill:#1ea6e6;fill-opacity:1;fill-rule:nonzero;stroke:none"
         d="m 937.965,1706.3 h 14.625 c 33.93,0 91.26,-1.73 91.26,46.8 0,53.21 -56.745,47.98 -94.198,47.98 h -11.687 z m 0,180.16 h 12.875 c 30.41,0 62,5.22 62,42.7 0,40.36 -35.688,42.72 -66.684,42.72 h -8.191 z M 823.32,1618.56 v 441.04 h 163.785 c 78.385,0 131.035,-30.38 131.035,-114.65 0,-39.78 -12.87,-71.91 -48.55,-90.06 v -1.16 c 63.18,-8.21 90.09,-50.92 90.09,-112.34 0,-92.43 -78.98,-122.83 -159.707,-122.83 H 823.32" /><path
         id="path28"
         style="fill:#1ea6e6;fill-opacity:1;fill-rule:nonzero;stroke:none"
         d="m 1295.42,1768.29 c 0,-37.99 25.16,-67.28 68.46,-67.28 43.25,0 68.41,29.29 68.41,67.28 0,36.85 -25.16,67.87 -68.41,67.87 -43.3,0 -68.46,-31.02 -68.46,-67.87 z m 249.2,0 c 0,-101.8 -84.23,-159.69 -180.74,-159.69 -95.95,0 -180.78,57.29 -180.78,159.69 0,102.36 84.25,160.28 180.78,160.28 96.51,0 180.74,-57.92 180.74,-160.28" /><path
         id="path30"
         style="fill:#1ea6e6;fill-opacity:1;fill-rule:nonzero;stroke:none"
         d="m 1671,1768.29 c 0,-37.99 25.16,-67.28 68.45,-67.28 43.27,0 68.44,29.29 68.44,67.28 0,36.85 -25.17,67.87 -68.44,67.87 -43.29,0 -68.45,-31.02 -68.45,-67.87 z m 249.21,0 c 0,-101.8 -84.24,-159.69 -180.76,-159.69 -95.92,0 -180.76,57.29 -180.76,159.69 0,102.36 84.25,160.28 180.76,160.28 96.52,0 180.76,-57.92 180.76,-160.28" /><path
         id="path32"
         style="fill:#1ea6e6;fill-opacity:1;fill-rule:nonzero;stroke:none"
         d="m 2062.97,1810.42 110.56,108.23 H 2319.2 L 2168.84,1780 2328.55,1618.56 h -149.16 l -116.42,122.23 v -122.23 h -106.48 v 485.5 h 106.48 v -293.64" /><path
         id="path34"
         style="fill:#1ea6e6;fill-opacity:1;fill-rule:nonzero;stroke:none"
         d="M 2453.75,1618.56 H 2347.3 v 300.09 h 106.45 z m 6.44,415.31 c 0,-32.74 -26.89,-59.67 -59.65,-59.67 -32.78,0 -59.69,26.93 -59.69,59.67 0,32.76 26.91,59.65 59.69,59.65 32.76,0 59.65,-26.89 59.65,-59.65" /><path
         id="path36"
         style="fill:#1ea6e6;fill-opacity:1;fill-rule:nonzero;stroke:none"
         d="m 2618.74,1879.99 h 1.16 c 24.58,36.29 54.4,48.58 95.93,48.58 80.74,0 112.92,-50.86 112.92,-124.63 v -185.38 h -106.47 v 146.24 c 0,28.64 4.68,78.95 -47.98,78.95 -43.29,0 -55.56,-32.15 -55.56,-69.57 v -155.62 h -106.48 v 300.09 h 106.48 v -38.66" /><path
         id="path38"
         style="fill:#1ea6e6;fill-opacity:1;fill-rule:nonzero;stroke:none"
         d="m 2976.76,1770.62 c 0,-38.02 25.15,-67.25 68.44,-67.25 43.29,0 68.46,29.23 68.46,67.25 0,36.88 -25.17,67.88 -68.46,67.88 -43.29,0 -68.44,-31 -68.44,-67.88 z m 239.85,-122.83 c 0,-127.56 -63.18,-179.02 -173.74,-179.02 -69.04,0 -161.45,35.68 -170.81,114.67 h 119.32 c 2.94,-10.52 10.53,-18.11 19.9,-22.8 9.36,-4.7 20.47,-7.02 30.4,-7.02 57.35,0 68.46,37.44 68.46,85.97 v 14.06 c -27.48,-27.5 -55.57,-40.98 -95.35,-40.98 -87.74,0 -147.99,66.71 -147.99,153.28 0,87.78 61.99,162.62 153.84,162.62 35.1,0 67.28,-11.69 88.33,-41.54 h 1.17 v 31.62 h 106.47 v -270.86" /><path
         id="path40"
         style="fill:none;stroke:#1ea6e6;stroke-width:20;stroke-linecap:butt;stroke-linejoin:miter;stroke-miterlimit:10;stroke-dasharray:none;stroke-opacity:1"
         d="M 3715.22,2203.6 C 3909.3,1111.4 3092.99,109.879 1874.39,292.691 1279.42,377.02 751.754,723.738 421.887,1096.52 87.4727,1477.82 -49.1641,1885.12 33.5352,2287.43 116.738,2690.1 386.27,3074.34 716.754,3426.1 c 334.506,343.33 729.916,654.21 1157.636,714.99 829.94,133.32 1648.97,-844.58 1840.83,-1937.49 z" /><path
         id="path42"
         style="fill:none;stroke:#f15029;stroke-width:20;stroke-linecap:butt;stroke-linejoin:miter;stroke-miterlimit:10;stroke-dasharray:none;stroke-opacity:1"
         d="M 3163.54,880.16 C 2493.74,1.58984 1227.02,-125.109 560.652,831.93 231.734,1295.82 138.484,1893.04 194.047,2372.9 c 58.812,488.84 266.433,860.34 614.297,1078.62 348.516,218.25 805.836,296.65 1279.466,311.27 470.14,6.13 956.56,-51.57 1281.64,-302.09 642.02,-475.73 465.8,-1703.01 -205.91,-2580.54 z" /><path
         id="path44"
         style="fill:none;stroke:#b5dc17;stroke-width:20;stroke-linecap:butt;stroke-linejoin:miter;stroke-miterlimit:10;stroke-dasharray:none;stroke-opacity:1"
         d="M 383.316,2678.82 C 554.281,3901.68 1676.62,4701.33 2799.95,4112.86 3349.95,3830.79 3748.33,3291.79 3946,2789.12 4145.3,2275.96 4143.98,1799.1 3931.23,1398.61 3717.91,997.809 3329.7,676.898 2893,410.219 2455.17,153.789 1968.84,-48.418 1533.46,25.3789 683.605,152.301 210.051,1455.99 383.316,2678.82 Z" /></g></g></svg>